<svg width="1024" height="1024" viewBox="0 0 1024 1024" xmlns="http://www.w3.org/2000/svg">
  <defs>
    <linearGradient id="bg" x1="0" y1="0" x2="1" y2="1">
      <stop offset="0%" stop-color="#0c1826"/>
      <stop offset="60%" stop-color="#14304a"/>
      <stop offset="100%" stop-color="#1e4d74"/>
    </linearGradient>
    <linearGradient id="accent" x1="0" y1="0" x2="1" y2="1">
      <stop offset="0%" stop-color="#53d4ff"/>
      <stop offset="100%" stop-color="#9dfff2"/>
    </linearGradient>
    <filter id="softGlow" x="-30%" y="-30%" width="160%" height="160%">
      <feGaussianBlur stdDeviation="9" result="blur"/>
      <feMerge>
        <feMergeNode in="blur"/>
        <feMergeNode in="SourceGraphic"/>
      </feMerge>
    </filter>
  </defs>

  <rect x="28" y="28" width="968" height="968" rx="212" fill="url(#bg)"/>
  <rect x="56" y="56" width="912" height="912" rx="185" fill="none" stroke="#7fd8ff" stroke-opacity="0.22" stroke-width="6"/>

  <g opacity="0.22" fill="none" stroke="#88e2ff" stroke-width="6">
    <path d="M208 290 H816"/>
    <path d="M208 380 H816"/>
    <path d="M208 470 H816"/>
    <path d="M208 560 H816"/>
    <path d="M208 650 H816"/>
    <path d="M208 740 H816"/>
  </g>

  <g fill="none" stroke="url(#accent)" stroke-linecap="round" stroke-linejoin="round" filter="url(#softGlow)">
    <path d="M240 220 L164 512 L240 804" stroke-width="42"/>
    <path d="M784 220 L860 512 L784 804" stroke-width="42"/>
  </g>

  <g>
    <rect x="320" y="300" width="384" height="136" rx="24" fill="#0f2437" stroke="#56c8ff" stroke-width="8"/>
    <rect x="260" y="460" width="280" height="120" rx="20" fill="#112b42" stroke="#71ddff" stroke-width="7"/>
    <rect x="560" y="460" width="204" height="120" rx="20" fill="#112b42" stroke="#71ddff" stroke-width="7"/>
    <rect x="350" y="606" width="324" height="118" rx="20" fill="#13344f" stroke="#9bfff3" stroke-width="7"/>

    <circle cx="370" cy="360" r="13" fill="#5bd2ff"/>
    <circle cx="420" cy="360" r="13" fill="#5bd2ff"/>
    <circle cx="470" cy="360" r="13" fill="#5bd2ff"/>

    <rect x="445" y="520" width="58" height="12" rx="6" fill="#9efff0"/>
    <rect x="635" y="520" width="58" height="12" rx="6" fill="#9efff0"/>
    <rect x="497" y="662" width="58" height="12" rx="6" fill="#9efff0"/>
  </g>

  <text x="512" y="878" text-anchor="middle" fill="#d8f5ff" font-size="78" font-family="Avenir, Montserrat, Helvetica, Arial, sans-serif" font-weight="800" letter-spacing="8">SV</text>
</svg>
